<mxfile host="app.diagrams.net" modified="2023-11-23T09:51:52.326Z" agent="Mozilla/5.0 (Windows NT 10.0; Win64; x64) AppleWebKit/537.36 (KHTML, like Gecko) Chrome/119.0.0.0 Safari/537.36" etag="aOOsCkAL57UQ2b-CB5JY" version="21.6.6" type="github">
  <diagram name="Page-1" id="bZ22wts9ZL9CsZyptoK8">
    <mxGraphModel dx="875" dy="452" grid="1" gridSize="10" guides="1" tooltips="1" connect="1" arrows="1" fold="1" page="1" pageScale="1" pageWidth="1400" pageHeight="850" math="0" shadow="0">
      <root>
        <mxCell id="0" />
        <mxCell id="1" parent="0" />
        <mxCell id="wvpcYqnINNZmsrRdIS55-19" value="" style="edgeStyle=orthogonalEdgeStyle;rounded=0;orthogonalLoop=1;jettySize=auto;html=1;" edge="1" parent="1" source="wvpcYqnINNZmsrRdIS55-7" target="wvpcYqnINNZmsrRdIS55-12">
          <mxGeometry relative="1" as="geometry" />
        </mxCell>
        <mxCell id="wvpcYqnINNZmsrRdIS55-7" value="SAPIQueue" style="sketch=0;outlineConnect=0;fontColor=#232F3E;gradientColor=none;strokeColor=#232F3E;fillColor=#ffffff;dashed=0;verticalLabelPosition=bottom;verticalAlign=top;align=center;html=1;fontSize=12;fontStyle=0;aspect=fixed;shape=mxgraph.aws4.resourceIcon;resIcon=mxgraph.aws4.queue;" vertex="1" parent="1">
          <mxGeometry x="70" y="150" width="60" height="60" as="geometry" />
        </mxCell>
        <mxCell id="wvpcYqnINNZmsrRdIS55-9" value="" style="group" vertex="1" connectable="0" parent="1">
          <mxGeometry x="530" y="10" width="50" height="79" as="geometry" />
        </mxCell>
        <mxCell id="wvpcYqnINNZmsrRdIS55-5" value="" style="image;aspect=fixed;perimeter=ellipsePerimeter;html=1;align=center;shadow=0;dashed=0;spacingTop=3;image=img/lib/active_directory/databases.svg;" vertex="1" parent="wvpcYqnINNZmsrRdIS55-9">
          <mxGeometry width="50" height="49" as="geometry" />
        </mxCell>
        <mxCell id="wvpcYqnINNZmsrRdIS55-8" value="DB2" style="text;html=1;align=center;verticalAlign=middle;resizable=0;points=[];autosize=1;strokeColor=none;fillColor=none;" vertex="1" parent="wvpcYqnINNZmsrRdIS55-9">
          <mxGeometry y="49" width="50" height="30" as="geometry" />
        </mxCell>
        <mxCell id="wvpcYqnINNZmsrRdIS55-14" value="" style="edgeStyle=orthogonalEdgeStyle;rounded=0;orthogonalLoop=1;jettySize=auto;html=1;" edge="1" parent="1" source="wvpcYqnINNZmsrRdIS55-12" target="wvpcYqnINNZmsrRdIS55-10">
          <mxGeometry relative="1" as="geometry" />
        </mxCell>
        <mxCell id="wvpcYqnINNZmsrRdIS55-15" value="" style="group" vertex="1" connectable="0" parent="1">
          <mxGeometry x="380" y="156" width="90" height="79" as="geometry" />
        </mxCell>
        <mxCell id="wvpcYqnINNZmsrRdIS55-10" value="" style="image;aspect=fixed;perimeter=ellipsePerimeter;html=1;align=center;shadow=0;dashed=0;spacingTop=3;image=img/lib/active_directory/databases.svg;" vertex="1" parent="wvpcYqnINNZmsrRdIS55-15">
          <mxGeometry x="10" width="50" height="49" as="geometry" />
        </mxCell>
        <mxCell id="wvpcYqnINNZmsrRdIS55-11" value="SAPI COMP DB" style="text;html=1;align=center;verticalAlign=middle;resizable=0;points=[];autosize=1;strokeColor=none;fillColor=none;" vertex="1" parent="wvpcYqnINNZmsrRdIS55-15">
          <mxGeometry x="-20" y="49" width="110" height="30" as="geometry" />
        </mxCell>
        <mxCell id="wvpcYqnINNZmsrRdIS55-22" value="" style="group" vertex="1" connectable="0" parent="1">
          <mxGeometry x="506" y="163" width="110" height="71" as="geometry" />
        </mxCell>
        <mxCell id="wvpcYqnINNZmsrRdIS55-28" value="" style="group" vertex="1" connectable="0" parent="wvpcYqnINNZmsrRdIS55-22">
          <mxGeometry width="110" height="71" as="geometry" />
        </mxCell>
        <mxCell id="wvpcYqnINNZmsrRdIS55-16" value="" style="sketch=0;aspect=fixed;pointerEvents=1;shadow=0;dashed=0;html=1;strokeColor=none;labelPosition=center;verticalLabelPosition=bottom;verticalAlign=top;align=center;fillColor=#00188D;shape=mxgraph.mscae.enterprise.application" vertex="1" parent="wvpcYqnINNZmsrRdIS55-28">
          <mxGeometry x="30" width="50" height="34" as="geometry" />
        </mxCell>
        <mxCell id="wvpcYqnINNZmsrRdIS55-20" value="Comp scheduler" style="text;html=1;align=center;verticalAlign=middle;resizable=0;points=[];autosize=1;strokeColor=none;fillColor=none;" vertex="1" parent="wvpcYqnINNZmsrRdIS55-28">
          <mxGeometry y="41" width="110" height="30" as="geometry" />
        </mxCell>
        <mxCell id="wvpcYqnINNZmsrRdIS55-23" value="" style="group" vertex="1" connectable="0" parent="1">
          <mxGeometry x="190" y="163" width="110" height="69" as="geometry" />
        </mxCell>
        <mxCell id="wvpcYqnINNZmsrRdIS55-12" value="" style="sketch=0;aspect=fixed;pointerEvents=1;shadow=0;dashed=0;html=1;strokeColor=none;labelPosition=center;verticalLabelPosition=bottom;verticalAlign=top;align=center;fillColor=#00188D;shape=mxgraph.mscae.enterprise.application" vertex="1" parent="wvpcYqnINNZmsrRdIS55-23">
          <mxGeometry x="25" width="50" height="34" as="geometry" />
        </mxCell>
        <mxCell id="wvpcYqnINNZmsrRdIS55-21" value="Comp subscriber" style="text;html=1;align=center;verticalAlign=middle;resizable=0;points=[];autosize=1;strokeColor=none;fillColor=none;" vertex="1" parent="wvpcYqnINNZmsrRdIS55-23">
          <mxGeometry y="39" width="110" height="30" as="geometry" />
        </mxCell>
        <mxCell id="wvpcYqnINNZmsrRdIS55-29" value="" style="edgeStyle=orthogonalEdgeStyle;rounded=0;orthogonalLoop=1;jettySize=auto;html=1;entryX=0;entryY=0.5;entryDx=0;entryDy=0;entryPerimeter=0;startArrow=classic;startFill=1;" edge="1" parent="1" source="wvpcYqnINNZmsrRdIS55-10" target="wvpcYqnINNZmsrRdIS55-16">
          <mxGeometry relative="1" as="geometry">
            <mxPoint x="510" y="181" as="targetPoint" />
          </mxGeometry>
        </mxCell>
        <mxCell id="wvpcYqnINNZmsrRdIS55-30" style="edgeStyle=orthogonalEdgeStyle;rounded=0;orthogonalLoop=1;jettySize=auto;html=1;entryX=0.393;entryY=0.01;entryDx=0;entryDy=0;entryPerimeter=0;" edge="1" parent="1" source="wvpcYqnINNZmsrRdIS55-8" target="wvpcYqnINNZmsrRdIS55-16">
          <mxGeometry relative="1" as="geometry" />
        </mxCell>
        <mxCell id="wvpcYqnINNZmsrRdIS55-33" value="" style="group" vertex="1" connectable="0" parent="1">
          <mxGeometry x="390.5" y="458" width="61" height="90" as="geometry" />
        </mxCell>
        <mxCell id="wvpcYqnINNZmsrRdIS55-31" value="" style="shadow=0;dashed=0;html=1;strokeColor=none;fillColor=#4495D1;labelPosition=center;verticalLabelPosition=bottom;verticalAlign=top;align=center;outlineConnect=0;shape=mxgraph.veeam.2d.web_ui;" vertex="1" parent="wvpcYqnINNZmsrRdIS55-33">
          <mxGeometry width="60" height="60" as="geometry" />
        </mxCell>
        <mxCell id="wvpcYqnINNZmsrRdIS55-32" value="Web UI" style="text;html=1;align=center;verticalAlign=middle;resizable=0;points=[];autosize=1;strokeColor=none;fillColor=none;" vertex="1" parent="wvpcYqnINNZmsrRdIS55-33">
          <mxGeometry x="1" y="60" width="60" height="30" as="geometry" />
        </mxCell>
        <mxCell id="wvpcYqnINNZmsrRdIS55-34" value="" style="group" vertex="1" connectable="0" parent="1">
          <mxGeometry x="365" y="311" width="110" height="69" as="geometry" />
        </mxCell>
        <mxCell id="wvpcYqnINNZmsrRdIS55-35" value="" style="sketch=0;aspect=fixed;pointerEvents=1;shadow=0;dashed=0;html=1;strokeColor=none;labelPosition=center;verticalLabelPosition=bottom;verticalAlign=top;align=center;fillColor=#00188D;shape=mxgraph.mscae.enterprise.application" vertex="1" parent="wvpcYqnINNZmsrRdIS55-34">
          <mxGeometry x="25" width="50" height="34" as="geometry" />
        </mxCell>
        <mxCell id="wvpcYqnINNZmsrRdIS55-36" value="Comp Tool" style="text;html=1;align=center;verticalAlign=middle;resizable=0;points=[];autosize=1;strokeColor=none;fillColor=none;" vertex="1" parent="wvpcYqnINNZmsrRdIS55-34">
          <mxGeometry x="15" y="39" width="80" height="30" as="geometry" />
        </mxCell>
        <mxCell id="wvpcYqnINNZmsrRdIS55-37" value="" style="edgeStyle=orthogonalEdgeStyle;rounded=0;orthogonalLoop=1;jettySize=auto;html=1;" edge="1" parent="1" source="wvpcYqnINNZmsrRdIS55-36" target="wvpcYqnINNZmsrRdIS55-31">
          <mxGeometry relative="1" as="geometry" />
        </mxCell>
        <mxCell id="wvpcYqnINNZmsrRdIS55-38" style="edgeStyle=orthogonalEdgeStyle;rounded=0;orthogonalLoop=1;jettySize=auto;html=1;entryX=0.5;entryY=0;entryDx=0;entryDy=0;entryPerimeter=0;" edge="1" parent="1" source="wvpcYqnINNZmsrRdIS55-11" target="wvpcYqnINNZmsrRdIS55-35">
          <mxGeometry relative="1" as="geometry" />
        </mxCell>
      </root>
    </mxGraphModel>
  </diagram>
</mxfile>
